<?xml version="1.0" encoding="UTF-8" standalone="no"?>
<svg
   xmlns:dc="http://purl.org/dc/elements/1.1/"
   xmlns:cc="http://creativecommons.org/ns#"
   xmlns:rdf="http://www.w3.org/1999/02/22-rdf-syntax-ns#"
   xmlns:svg="http://www.w3.org/2000/svg"
   xmlns="http://www.w3.org/2000/svg"
   viewBox="0 0 433.33334 433.33334"
   height="433.33334"
   width="433.33334"
   xml:space="preserve"
   id="svg2"
   version="1.1"><metadata
     id="metadata8"><rdf:RDF><cc:Work
         rdf:about=""><dc:format>image/svg+xml</dc:format><dc:type
           rdf:resource="http://purl.org/dc/dcmitype/StillImage" /></cc:Work></rdf:RDF></metadata><defs
     id="defs6" /><g
     transform="matrix(1.3333333,0,0,-1.3333333,0,433.33333)"
     id="g10"><g
       transform="scale(0.1)"
       id="g12"><path
         id="path14"
         style="fill:#2d2d4d;fill-opacity:1;fill-rule:nonzero;stroke:none"
         d="m 2717.48,2717.48 c 603.36,-603.36 603.36,-1581.6 0,-2184.96 -603.36,-603.3598 -1581.6,-603.3598 -2184.96,0 -603.3598,603.36 -603.3598,1581.6 0,2184.96 603.36,603.36 1581.6,603.36 2184.96,0" /><path
         id="path16"
         style="fill:none;stroke:#2979fc;stroke-width:160;stroke-linecap:round;stroke-linejoin:round;stroke-miterlimit:10;stroke-dasharray:none;stroke-opacity:1"
         d="m 2717.48,2717.48 c 603.36,-603.36 603.36,-1581.6 0,-2184.957 -603.36,-603.3628 -1581.6,-603.3628 -2184.957,0 -603.3628,603.357 -603.3628,1581.597 0,2184.957 603.357,603.36 1581.597,603.36 2184.957,0" /><path
         id="path18"
         style="fill:#ffffff;fill-opacity:1;fill-rule:nonzero;stroke:none"
         d="M 2137.55,1475.16 2340.66,1152.18 1602.42,562.012 3090,1469.4 v 5.76 z" /><path
         id="path20"
         style="fill:#ffffff;fill-opacity:1;fill-rule:nonzero;stroke:none"
         d="M 1582.07,550.031 V 2349.97 L 828.828,1152.18 Z" /></g></g></svg>