<svg height="512pt" viewBox="-26 0 511 512" width="512pt" xmlns="http://www.w3.org/2000/svg"><path fill="#FF4846" d="m458.800781 294.84375c0-24.203125-19.691406-43.894531-43.894531-43.894531h-51.144531v-68.640625c29.707031-17.203125 48.417969-49.152344 48.417969-83.925782 0-20.0625-6.078126-39.320312-17.585938-55.6875-11.234375-15.976562-26.792969-28.074218-44.996094-34.976562l-20.347656-7.71875v65.140625l-14.027344 8.660156-14.03125-8.660156v-65.140625l-20.34375 7.714844c-18.203125 6.90625-33.765625 19.003906-44.996094 34.980468-11.507812 16.367188-17.589843 35.621094-17.589843 55.6875 0 35.175782 19.011719 67.292969 49.195312 84.378907v20.207031h-63.605469l-80.675781 64.863281h-10.53125v-23.988281h-112.144531v268.15625h112.148438v-28.472656l54.683593 28.472656h216.917969v-.824219c20.179688-3.945312 35.453125-21.753906 35.453125-43.070312 0-7.757813-2.03125-15.046875-5.578125-21.378907 11.667969-7.898437 19.351562-21.253906 19.351562-36.375 0-7.941406-2.128906-15.390624-5.835937-21.828124 11.308594-7.945313 18.722656-21.082032 18.722656-35.925782 0-8.035156-2.183593-15.566406-5.96875-22.050781 11.132813-7.96875 18.40625-21 18.40625-35.703125zm-210.503906-196.460938c0-19.519531 8.664063-37.796874 22.859375-50.304687v33.8125l44.066406 27.214844 44.0625-27.210938v-33.816406c14.199219 12.507813 22.859375 30.785156 22.859375 50.304687 0 26.308594-15.523437 50.277344-39.550781 61.066407l-8.867188 3.984375v87.519531h-36.234374v-87.28125l-9.007813-3.933594c-24.414063-10.660156-40.1875-34.742187-40.1875-61.355469zm-165.683594 383.582032h-52.078125v-208.085938h52.078125zm293.199219 0h-201.128906l-62.035156-32.300782v-151.796874h21.105468l80.675782-64.859376h52.625v47.980469h147.851562c7.640625 0 13.859375 6.214844 13.859375 13.859375 0 7.640625-6.21875 13.859375-13.859375 13.859375h-87.519531v30.035157h75.082031c7.640625 0 13.855469 6.214843 13.855469 13.859374 0 7.640626-6.214844 13.859376-13.855469 13.859376h-87.964844v30.035156h75.078125c7.644531 0 13.859375 6.214844 13.859375 13.859375 0 7.640625-6.214844 13.859375-13.859375 13.859375h-88.851562v30.035156h75.082031c7.640625 0 13.859375 6.214844 13.859375 13.859375 0 7.640625-6.21875 13.855469-13.859375 13.855469zm0 0"/></svg>