<?xml version="1.0" encoding="UTF-8"?>
<svg width="110px" height="110px" viewBox="0 0 110 110" version="1.1" xmlns="http://www.w3.org/2000/svg" xmlns:xlink="http://www.w3.org/1999/xlink">
    <title>zu2804@3x</title>
    <defs>
        <linearGradient x1="59.1488487%" y1="50%" x2="0%" y2="51.0745494%" id="linearGradient-1">
            <stop stop-color="#E1E3EA" offset="0%"></stop>
            <stop stop-color="#FFFFFF" offset="100%"></stop>
        </linearGradient>
    </defs>
    <g id="资产" stroke="none" stroke-width="1" fill="none" fill-rule="evenodd" opacity="0.444893973">
        <g id="编组-21备份-2" fill-rule="nonzero">
            <g id="zu2804" transform="translate(2.000000, 0.000000)">
                <path d="M22.4055036,88 C22.4055036,88 -1.91434109,92.3188646 0.12097876,101.978604 C0.12097876,101.978604 3.8060964,116.292056 50.9378664,106.678634 L57,98.5693732 L22.4055036,88 Z" id="路径" fill="url(#linearGradient-1)"></path>
                <polygon id="路径" fill="#D8DCE8" points="51 67.4354749 51 107 81 93.8123305 81 55"></polygon>
                <polygon id="路径" fill="#D1D5E2" points="80 55.4074902 50 48 50.3716276 68"></polygon>
                <polygon id="路径" fill="#E9EDF6" points="51 67.2226915 57.290052 85 88 72.0402206 80.2315519 55"></polygon>
                <polygon id="路径" fill="#D0D5E2" points="51 67.4222601 51 107 18.4943324 94.5603715 17 58"></polygon>
                <polygon id="路径" fill="#E1E5F0" points="17.1774202 58 9 71.8136839 45.4250625 86 51 67.3375905"></polygon>
                <polygon id="路径" fill="#CBD1E0" points="17 58.3700392 50.6296035 48 51 68"></polygon>
                <path d="M61,36.0048647 C61,36.0048647 47.1282713,35.2964328 43,50.9777316 C42.9970513,50.9785042 59.681902,52.2223159 61,36.0048647 L61,36.0048647 Z" id="路径" fill="#E0E5F0"></path>
                <path d="M60.6080679,37.2148668 C58.5351773,39.6043412 56.29515,41.8478771 53.9044068,43.9290281 C51.2260302,46.3372676 48.2310128,48.3792527 45,50 C45,50 54.7635255,48.2777229 60.6080679,37.2148668 Z M100,31.0034959 C100,31.0034959 89.1178305,30.4889444 85.8782373,41.9450647 C85.8782373,41.9450647 98.9678644,42.8558208 100,31.0057011 L100,31.0034959 Z" id="形状" fill="#D8DCE8"></path>
                <path d="M60.6461319,36.9424838 C60.6461319,36.9424838 53.114249,46.1090254 45,50 C45,50 54.7873362,48.2429794 60.6461319,36.9424838 L60.6461319,36.9424838 Z M85.9779287,41.7735396 C85.9779287,41.7735396 89.2254225,30.0668269 85.9779287,41.7720379 L85.9779287,41.7735396 Z M65.4889644,37.6865896 C65.4889644,37.6865896 82.0852722,32.1745007 94.5467072,9.70115634 C91.6624775,16.5728832 87.4437,22.7983942 82.1368553,28.0139661 C77.4975108,32.6096736 71.7667263,35.9395458 65.4874692,37.6880914 L65.4889644,37.6865896 Z M99.0194868,20.1494218 C99.0194868,20.1494218 107.894774,9.84982733 103.860077,0 C103.860077,0 111.071995,9.57275869 99.0164965,20.1494218 L99.0194868,20.1494218 Z" id="形状" fill="#CBD1E0"></path>
            </g>
        </g>
    </g>
</svg>