<svg xmlns="http://www.w3.org/2000/svg" viewBox="0 0 50 50">
    <path fill="#E0E0E040" style="text-indent:0;text-align:start;line-height:normal;text-transform:none;block-progression:tb;-inkscape-font-specification:Sans" d="M 17 2 L 17 4 L 23 4 L 23 2 L 17 2 z M 28 2 L 28 4 L 34 4 L 34 2 L 28 2 z M 10.6875 2.15625 C 6.3218962 2.8973077 2.8973077 6.3218962 2.15625 10.6875 L 4.125 11.03125 C 4.7239423 7.5028538 7.5028538 4.7239423 11.03125 4.125 L 10.6875 2.15625 z M 39.3125 2.15625 L 38.96875 4.125 C 42.497146 4.7239423 45.276058 7.5028538 45.875 11.03125 L 47.84375 10.6875 C 47.102692 6.3218962 43.678104 2.8973077 39.3125 2.15625 z M 2 16 L 2 22 L 4 22 L 4 16 L 2 16 z M 46 17 L 46 23 L 48 23 L 48 17 L 46 17 z M 2 27 L 2 33 L 4 33 L 4 27 L 2 27 z M 46 28 L 46 34 L 48 34 L 48 28 L 46 28 z M 4.125 38.96875 L 2.15625 39.3125 C 2.8973077 43.678104 6.3218962 47.102692 10.6875 47.84375 L 11.03125 45.875 C 7.5028538 45.276058 4.7239423 42.497146 4.125 38.96875 z M 45.875 38.96875 C 45.276058 42.497146 42.497146 45.276058 38.96875 45.875 L 39.3125 47.84375 C 43.678104 47.102692 47.102692 43.678104 47.84375 39.3125 L 45.875 38.96875 z M 16 46 L 16 48 L 22 48 L 22 46 L 16 46 z M 27 46 L 27 48 L 33 48 L 33 46 L 27 46 z"/>
</svg>